<?xml version="1.0" encoding="UTF-8" standalone="no"?>
<!-- Created with Inkscape (http://www.inkscape.org/) -->

<svg
   xmlns:dc="http://purl.org/dc/elements/1.1/"
   xmlns:cc="http://creativecommons.org/ns#"
   xmlns:rdf="http://www.w3.org/1999/02/22-rdf-syntax-ns#"
   xmlns:svg="http://www.w3.org/2000/svg"
   xmlns="http://www.w3.org/2000/svg"
   xmlns:sodipodi="http://sodipodi.sourceforge.net/DTD/sodipodi-0.dtd"
   xmlns:inkscape="http://www.inkscape.org/namespaces/inkscape"
   version="1.1"
   width="398.31107"
   height="264.4899"
   id="svg2"
   inkscape:version="0.48.4 r9939"
   sodipodi:docname="item3_vraag.svg">
  <sodipodi:namedview
     pagecolor="#ffffff"
     bordercolor="#666666"
     borderopacity="1"
     objecttolerance="10"
     gridtolerance="10"
     guidetolerance="10"
     inkscape:pageopacity="0"
     inkscape:pageshadow="2"
     inkscape:window-width="1264"
     inkscape:window-height="1402"
     id="namedview25"
     showgrid="false"
     inkscape:zoom="4.135282"
     inkscape:cx="119.8521"
     inkscape:cy="70.848404"
     inkscape:window-x="1280"
     inkscape:window-y="0"
     inkscape:window-maximized="0"
     inkscape:current-layer="svg2"
     fit-margin-top="5"
     fit-margin-left="5"
     fit-margin-right="5"
     fit-margin-bottom="5" />
  <metadata
     id="metadata28">
    <rdf:RDF>
      <cc:Work
         rdf:about="">
        <dc:format>image/svg+xml</dc:format>
        <dc:type
           rdf:resource="http://purl.org/dc/dcmitype/StillImage" />
        <dc:title />
      </cc:Work>
    </rdf:RDF>
  </metadata>
  <defs
     id="defs26">
    <inkscape:path-effect
       effect="spiro"
       id="path-effect3021"
       is_visible="true" />
    <inkscape:path-effect
       is_visible="true"
       id="path-effect3015"
       effect="spiro" />
    <inkscape:path-effect
       is_visible="true"
       id="path-effect3011"
       effect="spiro" />
    <inkscape:path-effect
       effect="spiro"
       id="path-effect3007"
       is_visible="true" />
  </defs>
  <style
     id="style4" />
  <g
     id="g6"
     transform="translate(313.24807,127.70556)">
    <g
       id="g8"
       style="fill:#0084c8;stroke:#2d2d2d">
      <path
         d="m 73.156,-2.845 0.58,-0.023 2.617,0.368 3.21,0.999 0,3.002 -3.21,0.999 -2.617,0.368 -0.58,-0.023 -0.255,3.883 0.578,0.053 2.548,0.707 3.052,1.409 -0.392,2.977 -3.313,0.57 -2.644,0.024 -0.571,-0.098 -0.759,3.816 0.565,0.128 2.434,1.033 2.842,1.795 -0.777,2.901 -3.359,0.133 -2.624,-0.322 -0.554,-0.171 -1.251,3.684 0.544,0.201 2.278,1.342 2.583,2.151 -1.149,2.774 -3.347,-0.307 -2.56,-0.661 -0.527,-0.243 -1.72,3.49 0.513,0.27 2.083,1.628 2.28,2.47 -1.501,2.6 -3.279,-0.741 -2.451,-0.99 -0.491,-0.309 -2.161,3.235 0.473,0.335 1.853,1.886 1.939,2.746 -1.828,2.382 -3.154,-1.162 -2.302,-1.301 -0.446,-0.371 -2.565,2.925 0.426,0.394 1.591,2.112 1.563,2.975 -2.123,2.123 -2.975,-1.563 -2.112,-1.591 -0.394,-0.426 -2.925,2.565 0.371,0.446 1.301,2.302 1.162,3.154 -2.382,1.828 -2.746,-1.939 -1.886,-1.853 -0.335,-0.473 -3.235,2.161 0.309,0.491 0.99,2.451 0.741,3.279 -2.6,1.501 -2.47,-2.28 -1.628,-2.083 -0.27,-0.513 -3.49,1.72 0.243,0.527 0.661,2.56 0.307,3.347 -2.774,1.149 -2.151,-2.583 -1.342,-2.278 -0.201,-0.544 -3.684,1.251 0.171,0.554 0.322,2.624 -0.133,3.359 -2.901,0.777 -1.795,-2.842 -1.033,-2.434 -0.128,-0.565 -3.816,0.759 0.098,0.571 -0.024,2.644 -0.57,3.313 -2.977,0.392 -1.409,-3.052 -0.707,-2.548 -0.053,-0.578 -3.883,0.255 0.023,0.58 -0.368,2.617 -0.999,3.21 -3.002,0 -0.999,-3.21 -0.368,-2.617 0.023,-0.58 -3.883,-0.255 -0.053,0.578 -0.707,2.548 -1.409,3.052 -2.977,-0.392 -0.57,-3.313 -0.024,-2.644 0.098,-0.571 -3.816,-0.759 -0.128,0.565 -1.033,2.434 -1.795,2.842 -2.901,-0.777 -0.133,-3.359 0.322,-2.624 0.171,-0.554 -3.684,-1.251 -0.201,0.544 -1.342,2.278 -2.151,2.583 -2.774,-1.149 0.307,-3.347 0.661,-2.56 0.243,-0.527 -3.49,-1.72 -0.27,0.513 -1.628,2.083 -2.47,2.28 -2.6,-1.501 0.741,-3.279 0.99,-2.451 0.309,-0.491 -3.235,-2.161 -0.335,0.473 -1.886,1.853 -2.746,1.939 -2.382,-1.828 1.162,-3.154 1.301,-2.302 0.371,-0.446 -2.925,-2.565 -0.394,0.426 -2.112,1.591 -2.975,1.563 -2.123,-2.123 1.563,-2.975 1.591,-2.112 0.426,-0.394 -2.565,-2.925 -0.446,0.371 -2.302,1.301 -3.154,1.162 -1.828,-2.382 1.939,-2.746 1.853,-1.886 0.473,-0.335 -2.161,-3.235 -0.491,0.309 -2.451,0.99 -3.279,0.741 -1.501,-2.6 2.28,-2.47 2.083,-1.628 0.513,-0.27 -1.72,-3.49 -0.527,0.243 -2.56,0.661 -3.347,0.307 -1.149,-2.774 2.583,-2.151 2.278,-1.342 0.544,-0.201 -1.251,-3.684 -0.554,0.171 -2.624,0.322 -3.359,-0.133 -0.777,-2.901 2.842,-1.795 2.434,-1.033 0.565,-0.128 -0.759,-3.816 -0.571,0.098 -2.644,-0.024 -3.313,-0.57 -0.392,-2.977 3.052,-1.409 2.548,-0.707 0.578,-0.053 -0.255,-3.883 -0.58,0.023 -2.617,-0.368 -3.21,-0.999 0,-3.002 3.21,-0.999 2.617,-0.368 0.58,0.023 0.255,-3.883 -0.578,-0.053 -2.548,-0.707 -3.052,-1.409 0.392,-2.977 3.313,-0.57 2.644,-0.024 0.571,0.098 0.759,-3.816 -0.565,-0.128 -2.434,-1.033 -2.842,-1.795 0.777,-2.901 3.359,-0.133 2.624,0.322 0.554,0.171 1.251,-3.684 -0.544,-0.201 -2.278,-1.342 -2.583,-2.151 1.149,-2.774 3.347,0.307 2.56,0.661 0.527,0.243 1.72,-3.49 -0.513,-0.27 -2.083,-1.628 -2.28,-2.47 1.501,-2.6 3.279,0.741 2.451,0.99 0.491,0.309 2.161,-3.235 -0.473,-0.335 -1.853,-1.886 -1.939,-2.746 1.828,-2.382 3.154,1.162 2.302,1.301 0.446,0.371 2.565,-2.925 -0.426,-0.394 -1.591,-2.112 -1.563,-2.975 2.123,-2.123 2.975,1.563 2.112,1.591 0.394,0.426 2.925,-2.565 -0.371,-0.446 -1.301,-2.302 -1.162,-3.154 2.382,-1.828 2.746,1.939 1.886,1.853 0.335,0.473 3.235,-2.161 -0.309,-0.491 -0.99,-2.451 -0.741,-3.279 2.6,-1.501 2.47,2.28 1.628,2.083 0.27,0.513 3.49,-1.72 -0.243,-0.527 -0.661,-2.56 -0.307,-3.347 2.774,-1.149 2.151,2.583 1.342,2.278 0.201,0.544 3.684,-1.251 -0.171,-0.554 -0.322,-2.624 0.133,-3.359 2.901,-0.777 1.795,2.842 1.033,2.434 0.128,0.565 3.816,-0.759 -0.098,-0.571 0.024,-2.644 0.57,-3.313 2.977,-0.392 1.409,3.052 0.707,2.548 0.053,0.578 3.883,-0.255 -0.023,-0.58 0.368,-2.617 0.999,-3.21 3.002,0 0.999,3.21 0.368,2.617 -0.023,0.58 3.883,0.255 0.053,-0.578 0.707,-2.548 1.409,-3.052 2.977,0.392 0.57,3.313 0.024,2.644 -0.098,0.571 3.816,0.759 0.128,-0.565 1.033,-2.434 1.795,-2.842 2.901,0.777 0.133,3.359 -0.322,2.624 -0.171,0.554 3.684,1.251 0.201,-0.544 1.342,-2.278 2.151,-2.583 2.774,1.149 -0.307,3.347 -0.661,2.56 -0.243,0.527 3.49,1.72 0.27,-0.513 1.628,-2.083 2.47,-2.28 2.6,1.501 -0.741,3.279 -0.99,2.451 -0.309,0.491 3.235,2.161 0.335,-0.473 1.886,-1.853 2.746,-1.939 2.382,1.828 -1.162,3.154 -1.301,2.302 -0.371,0.446 2.925,2.565 0.394,-0.426 2.112,-1.591 2.975,-1.563 2.123,2.123 -1.563,2.975 -1.591,2.112 -0.426,0.394 2.565,2.925 0.446,-0.371 2.302,-1.301 3.154,-1.162 1.828,2.382 -1.939,2.746 -1.853,1.886 -0.473,0.335 2.161,3.235 0.491,-0.309 2.451,-0.99 3.279,-0.741 1.501,2.6 -2.28,2.47 -2.083,1.628 -0.513,0.27 1.72,3.49 0.527,-0.243 2.56,-0.661 3.347,-0.307 1.149,2.774 -2.583,2.151 -2.278,1.342 -0.544,0.201 1.251,3.684 0.554,-0.171 2.624,-0.322 3.359,0.133 0.777,2.901 -2.842,1.795 -2.434,1.033 -0.565,0.128 0.759,3.816 0.571,-0.098 2.644,0.024 3.313,0.57 0.392,2.977 -3.052,1.409 -2.548,0.707 -0.578,0.053 z"
         id="gear-3"
         style="fill:#0084c8;stroke:#2d2d2d"
         inkscape:connector-curvature="0" />
      <circle
         cx="0"
         cy="0"
         r="5"
         id="circle22-1"
         style="fill:#0084c8;fill-opacity:1;stroke:#2d2d2d;stroke-width:0.72413641"
         d="M 5,0 C 5,2.7614237 2.7614237,5 0,5 -2.7614237,5 -5,2.7614237 -5,0 c 0,-2.7614237 2.2385763,-5 5,-5 2.7614237,0 5,2.2385763 5,5 z"
         sodipodi:cx="0"
         sodipodi:cy="0"
         sodipodi:rx="5"
         sodipodi:ry="5"
         transform="scale(2.7619104,2.7619104)" />
    </g>
  </g>
  <g
     id="g12"
     transform="translate(236.0235,65.258539)">
    <g
       id="g11"
       style="fill:#0084c8;stroke:#2d2d2d">
      <path
         d="m 15.766,-2.174 2.509,-0.346 0.66,0.027 3.313,1.267 0,2.452 L 18.935,2.493 18.275,2.52 15.766,2.174 14.741,6 l 2.346,0.955 0.558,0.354 2.235,2.753 -1.226,2.124 -3.502,-0.56 -0.586,-0.306 -1.999,-1.554 -2.801,2.801 1.554,1.999 0.306,0.586 0.56,3.502 L 10.062,19.88 7.309,17.645 6.955,17.087 6,14.741 l -3.826,1.025 0.346,2.509 -0.027,0.66 -1.267,3.313 -2.452,0 -1.267,-3.313 -0.027,-0.66 0.346,-2.509 -3.826,-1.025 -0.955,2.346 -0.354,0.558 -2.753,2.235 -2.124,-1.226 0.56,-3.502 0.306,-0.586 1.554,-1.999 -2.801,-2.801 -1.999,1.554 -0.586,0.306 -3.502,0.56 -1.226,-2.124 2.235,-2.753 0.558,-0.354 2.346,-0.955 -1.025,-3.826 -2.509,0.346 -0.66,-0.027 -3.313,-1.267 0,-2.452 3.313,-1.267 0.66,-0.027 2.509,0.346 1.025,-3.826 -2.346,-0.955 -0.558,-0.354 -2.235,-2.753 1.226,-2.124 3.502,0.56 0.586,0.306 1.999,1.554 2.801,-2.801 -1.554,-1.999 -0.306,-0.586 -0.56,-3.502 2.124,-1.226 2.753,2.235 0.354,0.558 0.955,2.346 3.826,-1.025 -0.346,-2.509 0.027,-0.66 1.267,-3.313 2.452,0 1.267,3.313 0.027,0.66 -0.346,2.509 3.826,1.025 0.955,-2.346 0.354,-0.558 2.753,-2.235 2.124,1.226 -0.56,3.502 -0.306,0.586 -1.554,1.999 2.801,2.801 1.999,-1.554 0.586,-0.306 3.502,-0.56 1.226,2.124 -2.235,2.753 -0.558,0.354 L 14.741,-6 z"
         id="gear-4"
         style="fill:#0084c8;stroke:#2d2d2d"
         inkscape:connector-curvature="0" />
      <circle
         cx="0"
         cy="0"
         r="10"
         id="circle14"
         style="fill:none;stroke:#2d2d2d;stroke-width:2.28100896"
         d="M 10,0 C 10,5.5228475 5.5228475,10 0,10 -5.5228475,10 -10,5.5228475 -10,0 c 0,-5.5228475 4.4771525,-10 10,-10 5.5228475,0 10,4.4771525 10,10 z"
         sodipodi:cx="0"
         sodipodi:cy="0"
         sodipodi:rx="10"
         sodipodi:ry="10"
         transform="scale(0.43840245,0.43840245)" />
    </g>
  </g>
  <g
     transform="matrix(0.82009775,0,0,0.82009775,163.08917,59.776529)"
     id="g15">
    <g
       id="g19"
       style="fill:#19aeff;stroke:#2d2d2d;stroke-width:1.21936679">
      <path
         d="m 55.842,-4.497 1.402,-0.113 3.741,0.613 5.198,2.175 0,3.644 -5.198,2.175 -3.741,0.613 -1.402,-0.113 -0.739,5.612 1.384,0.254 3.454,1.56 4.459,3.447 -0.943,3.519 -5.585,0.756 -3.771,-0.376 -1.326,-0.473 -2.166,5.231 1.271,0.603 2.933,2.401 3.414,4.483 -1.821,3.156 -5.59,-0.716 -3.546,-1.34 -1.158,-0.799 -3.446,4.491 1.072,0.912 2.211,3.078 2.138,5.214 -2.577,2.577 -5.214,-2.138 -3.078,-2.211 -0.912,-1.072 -4.491,3.446 0.799,1.158 1.34,3.546 0.716,5.59 -3.156,1.821 -4.483,-3.414 -2.401,-2.933 -0.603,-1.271 -5.231,2.166 0.473,1.326 0.376,3.771 -0.756,5.585 -3.519,0.943 -3.447,-4.459 -1.56,-3.454 -0.254,-1.384 -5.612,0.739 0.113,1.402 -0.613,3.741 -2.175,5.198 -3.644,0 -2.175,-5.198 -0.613,-3.741 0.113,-1.402 -5.612,-0.739 -0.254,1.384 -1.56,3.454 -3.447,4.459 -3.519,-0.943 -0.756,-5.585 0.376,-3.771 0.473,-1.326 -5.231,-2.166 -0.603,1.271 -2.401,2.933 -4.483,3.414 -3.156,-1.821 0.716,-5.59 1.34,-3.546 0.799,-1.158 -4.491,-3.446 -0.912,1.072 -3.078,2.211 -5.214,2.138 -2.577,-2.577 2.138,-5.214 2.211,-3.078 1.072,-0.912 -3.446,-4.491 -1.158,0.799 -3.546,1.34 -5.59,0.716 -1.821,-3.156 3.414,-4.483 2.933,-2.401 1.271,-0.603 -2.166,-5.231 -1.326,0.473 -3.771,0.376 -5.585,-0.756 -0.943,-3.519 4.459,-3.447 3.454,-1.56 1.384,-0.254 -0.739,-5.612 -1.402,0.113 -3.741,-0.613 -5.198,-2.175 0,-3.644 5.198,-2.175 3.741,-0.613 1.402,0.113 0.739,-5.612 -1.384,-0.254 -3.454,-1.56 -4.459,-3.447 0.943,-3.519 5.585,-0.756 3.771,0.376 1.326,0.473 2.166,-5.231 -1.271,-0.603 -2.933,-2.401 -3.414,-4.483 1.821,-3.156 5.59,0.716 3.546,1.34 1.158,0.799 3.446,-4.491 -1.072,-0.912 -2.211,-3.078 -2.138,-5.214 2.577,-2.577 5.214,2.138 3.078,2.211 0.912,1.072 4.491,-3.446 -0.799,-1.158 -1.34,-3.546 -0.716,-5.59 3.156,-1.821 4.483,3.414 2.401,2.933 0.603,1.271 5.231,-2.166 -0.473,-1.326 -0.376,-3.771 0.756,-5.585 3.519,-0.943 3.447,4.459 1.56,3.454 0.254,1.384 5.612,-0.739 -0.113,-1.402 0.613,-3.741 2.175,-5.198 3.644,0 2.175,5.198 0.613,3.741 -0.113,1.402 5.612,0.739 0.254,-1.384 1.56,-3.454 3.447,-4.459 3.519,0.943 0.756,5.585 -0.376,3.771 -0.473,1.326 5.231,2.166 0.603,-1.271 2.401,-2.933 4.483,-3.414 3.156,1.821 -0.716,5.59 -1.34,3.546 -0.799,1.158 4.491,3.446 0.912,-1.072 3.078,-2.211 5.214,-2.138 2.577,2.577 -2.138,5.214 -2.211,3.078 -1.072,0.912 3.446,4.491 1.158,-0.799 3.546,-1.34 5.59,-0.716 1.821,3.156 -3.414,4.483 -2.933,2.401 -1.271,0.603 2.166,5.231 1.326,-0.473 3.771,-0.376 5.585,0.756 0.943,3.519 -4.459,3.447 -3.454,1.56 -1.384,0.254 z"
         id="gear-2"
         style="fill:#19aeff;stroke:#2d2d2d;stroke-width:1.21936679"
         inkscape:connector-curvature="0" />
      <circle
         cx="0"
         cy="0"
         r="5"
         id="circle22"
         style="fill:#19aeff;stroke:#2d2d2d;stroke-width:0.72413641"
         d="M 5,0 C 5,2.7614237 2.7614237,5 0,5 -2.7614237,5 -5,2.7614237 -5,0 c 0,-2.7614237 2.2385763,-5 5,-5 2.7614237,0 5,2.2385763 5,5 z"
         sodipodi:cx="0"
         sodipodi:cy="0"
         sodipodi:rx="5"
         sodipodi:ry="5"
         transform="scale(3.3677819,3.3677819)" />
    </g>
  </g>
  <g
     id="g21"
     transform="matrix(0.84461679,0,0,0.84461679,52.296572,62.719244)">
    <g
       id="g20">
      <path
         d="m 1.6979292,-50.899735 -3.4586888,2.1e-4 -2.2557812,5.251237 -0.4000758,2.817026 0.2259903,2.324233 -5.7939914,1.012103 -0.5554163,-2.25523 -1.334003,-2.519013 -3.934597,-4.150184 -3.257682,1.204146 -0.332995,5.684446 0.586538,2.800099 1.029597,2.084752 -5.086731,2.944995 -1.313688,-1.912591 -2.140976,-1.899378 -5.06861,-2.572689 -2.675928,2.226549 1.641854,5.460501 1.509531,2.422962 1.680992,1.628135 -3.805855,4.502807 -1.888989,-1.347421 -2.636437,-1.066322 -5.655704,-0.67694 -1.737708,3.026092 3.41715,4.566874 2.229584,1.756307 2.118625,0.943572 -1.991287,5.551577 -2.265069,-0.652029 -2.840357,-0.08641 -5.529496,1.312434 -0.600527,3.416371 4.744949,3.1503847 2.705093,0.8562971 2.34623,0.1903604 -0.01539,5.8670783 -2.318821,0.1952139 -2.689487,0.8598191 -4.775236,3.1584105 0.606859,3.40651 5.542084,1.32331 2.842049,-0.103229 2.240685,-0.653153 2.036554,5.561607 -2.130073,0.926441 -2.24539,1.762846 -3.405743,4.57314 1.756105,3.005704 5.636735,-0.658995 2.660399,-1.055312 1.89264,-1.380656 3.771925,4.534061 -1.678876,1.608614 -1.500945,2.401387 -1.631087,5.48797 2.657103,2.212229 5.114126,-2.559435 2.107739,-1.88224 1.291269,-1.930593 5.101418,2.927494 -1.005125,2.107798 -0.584665,2.784574 0.334982,5.674971 3.252009,1.174546 3.931005,-4.131776 1.332514,-2.526193 0.5542846,-2.25052 5.8170413,1.022647 -0.2465063,2.304639 0.3910565,2.829169 2.2861525,5.224752 3.4576052,0.006 2.2503573,-5.220481 0.400075,-2.817028 -0.2259786,-2.324229 5.7939931,-1.012095 0.5554104,2.255225 1.339413,2.488243 3.934599,4.15017 3.25229,-1.173359 0.338421,-5.715222 -0.591964,-2.76932 -1.029587,-2.084753 5.122914,-2.970368 1.30828,1.943368 2.110197,1.893971 5.104805,2.547337 2.645146,-2.231977 -1.641857,-5.460496 -1.509537,-2.422961 -1.655617,-1.591946 3.78049,-4.538996 1.883581,1.37819 2.636436,1.066331 5.661109,0.646241 1.732275,-2.99531 -3.411722,-4.597667 -2.234995,-1.725533 -2.11321,-0.974349 2.016654,-5.515386 2.239687,0.61584 2.834958,0.11759 L 49.822,10.523207 50.422453,7.10678 45.672099,3.9871691 42.972414,3.1000957 40.651559,2.9459318 l -0.0091,-5.9032662 2.313409,-0.1644331 2.6949,-0.8906007 4.769822,-3.1276323 -0.601457,-3.4372925 -5.547483,-1.292528 -2.842049,0.103229 -2.235274,0.62238 -2.011191,-5.525425 2.104712,-0.962627 2.24538,-1.762845 3.405735,-4.573147 -1.725321,-3.00029 -5.67292,0.68436 -2.629617,1.060717 -1.887228,1.349893 -3.808115,-4.508701 1.678871,-1.608611 1.506362,-2.432168 1.625675,-5.4572 -2.651695,-2.242996 -5.114132,2.559433 -2.113142,1.913024 -1.291264,1.930579 -5.101428,-2.927487 1.00513,-2.107796 0.584661,-2.784576 -0.329573,-5.705746 -3.251997,-1.174543 -3.936422,4.162553 -1.327103,2.495415 -0.5542819,2.250521 -5.8170408,-1.022668 0.2465034,-2.304629 -0.3964611,-2.79841 -2.2807448,-5.25552 z m -5.3859098,17.129759 0.1228538,20.749636 c -4.6510568,1.267152 -8.2937182,4.9532092 -9.5057192,9.6189497 l -20.749639,0.1228539 c 1.542531,-15.9865016 14.16539,-28.7597306 30.1325047,-30.4914406 z m 6.9998761,-0.0411 C 19.298404,-32.26884 32.071621,-19.645971 33.803334,-3.67886 L 13.022449,-3.555851 C 11.758677,-8.1945485 8.0830594,-11.808842 3.4349346,-13.030524 z M 1.1122074,-6.4167923 c 3.5356327,0.621556 5.8979592,3.991622 5.276405,7.5272552 -0.6215551,3.5356282 -3.9916223,5.8979544 -7.5272543,5.2763999 -3.5356318,-0.6215552 -5.8979596,-3.9916214 -5.2764046,-7.5272549 0.6215556,-3.5356325 3.9916222,-5.8979594 7.527254,-5.2764052 z M -33.779039,3.7213427 -12.998132,3.5983061 c 1.276623,4.6333244 4.9341892,8.2658839 9.5874964,9.4746599 l 0.123039,20.780867 C -19.274103,32.311323 -32.047323,19.688454 -33.779039,3.7213407 z M 13.032642,3.4441789 33.844779,3.3209558 C 32.302254,19.307458 19.679399,32.080679 3.7122818,33.812397 L 3.5890582,13.00025 C 8.21001,11.727029 11.81422,8.0798866 13.032642,3.4441789 z"
         id="gear-1"
         style="fill:#DB7B03;stroke:#2d2d2d;stroke-width:1.28386939"
         inkscape:connector-curvature="0" />
    </g>
  </g>
  <g
     id="use3000"
     transform="matrix(-0.82009775,0,0,0.82009775,76.37897,185.49549)">
    <g
       style="fill:#19aeff;stroke:#2d2d2d;stroke-width:1.21936679"
       id="g3011">
      <path
         inkscape:connector-curvature="0"
         style="fill:#19aeff;stroke:#2d2d2d;stroke-width:1.21936679"
         id="path3015"
         d="m 55.842,-4.497 1.402,-0.113 3.741,0.613 5.198,2.175 0,3.644 -5.198,2.175 -3.741,0.613 -1.402,-0.113 -0.739,5.612 1.384,0.254 3.454,1.56 4.459,3.447 -0.943,3.519 -5.585,0.756 -3.771,-0.376 -1.326,-0.473 -2.166,5.231 1.271,0.603 2.933,2.401 3.414,4.483 -1.821,3.156 -5.59,-0.716 -3.546,-1.34 -1.158,-0.799 -3.446,4.491 1.072,0.912 2.211,3.078 2.138,5.214 -2.577,2.577 -5.214,-2.138 -3.078,-2.211 -0.912,-1.072 -4.491,3.446 0.799,1.158 1.34,3.546 0.716,5.59 -3.156,1.821 -4.483,-3.414 -2.401,-2.933 -0.603,-1.271 -5.231,2.166 0.473,1.326 0.376,3.771 -0.756,5.585 -3.519,0.943 -3.447,-4.459 -1.56,-3.454 -0.254,-1.384 -5.612,0.739 0.113,1.402 -0.613,3.741 -2.175,5.198 -3.644,0 -2.175,-5.198 -0.613,-3.741 0.113,-1.402 -5.612,-0.739 -0.254,1.384 -1.56,3.454 -3.447,4.459 -3.519,-0.943 -0.756,-5.585 0.376,-3.771 0.473,-1.326 -5.231,-2.166 -0.603,1.271 -2.401,2.933 -4.483,3.414 -3.156,-1.821 0.716,-5.59 1.34,-3.546 0.799,-1.158 -4.491,-3.446 -0.912,1.072 -3.078,2.211 -5.214,2.138 -2.577,-2.577 2.138,-5.214 2.211,-3.078 1.072,-0.912 -3.446,-4.491 -1.158,0.799 -3.546,1.34 -5.59,0.716 -1.821,-3.156 3.414,-4.483 2.933,-2.401 1.271,-0.603 -2.166,-5.231 -1.326,0.473 -3.771,0.376 -5.585,-0.756 -0.943,-3.519 4.459,-3.447 3.454,-1.56 1.384,-0.254 -0.739,-5.612 -1.402,0.113 -3.741,-0.613 -5.198,-2.175 0,-3.644 5.198,-2.175 3.741,-0.613 1.402,0.113 0.739,-5.612 -1.384,-0.254 -3.454,-1.56 -4.459,-3.447 0.943,-3.519 5.585,-0.756 3.771,0.376 1.326,0.473 2.166,-5.231 -1.271,-0.603 -2.933,-2.401 -3.414,-4.483 1.821,-3.156 5.59,0.716 3.546,1.34 1.158,0.799 3.446,-4.491 -1.072,-0.912 -2.211,-3.078 -2.138,-5.214 2.577,-2.577 5.214,2.138 3.078,2.211 0.912,1.072 4.491,-3.446 -0.799,-1.158 -1.34,-3.546 -0.716,-5.59 3.156,-1.821 4.483,3.414 2.401,2.933 0.603,1.271 5.231,-2.166 -0.473,-1.326 -0.376,-3.771 0.756,-5.585 3.519,-0.943 3.447,4.459 1.56,3.454 0.254,1.384 5.612,-0.739 -0.113,-1.402 0.613,-3.741 2.175,-5.198 3.644,0 2.175,5.198 0.613,3.741 -0.113,1.402 5.612,0.739 0.254,-1.384 1.56,-3.454 3.447,-4.459 3.519,0.943 0.756,5.585 -0.376,3.771 -0.473,1.326 5.231,2.166 0.603,-1.271 2.401,-2.933 4.483,-3.414 3.156,1.821 -0.716,5.59 -1.34,3.546 -0.799,1.158 4.491,3.446 0.912,-1.072 3.078,-2.211 5.214,-2.138 2.577,2.577 -2.138,5.214 -2.211,3.078 -1.072,0.912 3.446,4.491 1.158,-0.799 3.546,-1.34 5.59,-0.716 1.821,3.156 -3.414,4.483 -2.933,2.401 -1.271,0.603 2.166,5.231 1.326,-0.473 3.771,-0.376 5.585,0.756 0.943,3.519 -4.459,3.447 -3.454,1.56 -1.384,0.254 z" />
      <circle
         transform="scale(3.3677819,3.3677819)"
         sodipodi:ry="5"
         sodipodi:rx="5"
         sodipodi:cy="0"
         sodipodi:cx="0"
         d="M 5,0 C 5,2.7614237 2.7614237,5 0,5 -2.7614237,5 -5,2.7614237 -5,0 c 0,-2.7614237 2.2385763,-5 5,-5 2.7614237,0 5,2.2385763 5,5 z"
         style="fill:#19aeff;stroke:#2d2d2d;stroke-width:0.72413641"
         id="circle3017"
         r="5"
         cy="0"
         cx="0" />
    </g>
  </g>
  <g
     id="g3811"
     transform="matrix(0.67303903,0.70228433,0.68957735,-0.48244751,-416.18671,153.76612)">
    <path
       transform="matrix(-0.47122706,-0.30037277,-0.19624569,0.42822795,461.56648,200.38142)"
       inkscape:transform-center-y="-4.6996777"
       inkscape:transform-center-x="2.7882857"
       d="M 27.640085,343.55333 41.693913,377.23655 5.4964758,372.56592 z"
       inkscape:randomized="0"
       inkscape:rounded="0"
       inkscape:flatsided="true"
       sodipodi:arg2="-0.39527555"
       sodipodi:arg1="-1.4424731"
       sodipodi:r2="10.535928"
       sodipodi:r1="21.071856"
       sodipodi:cy="364.45193"
       sodipodi:cx="24.943491"
       sodipodi:sides="3"
       id="path3801"
       style="color:#000000;fill:#9ade00;stroke:#9ade00;stroke-width:10;stroke-linecap:butt;stroke-linejoin:miter;stroke-miterlimit:4;stroke-opacity:1;stroke-dasharray:none;stroke-dashoffset:0;marker:none;visibility:visible;display:inline;overflow:visible;enable-background:accumulate"
       sodipodi:type="star" />
    <path
       transform="translate(270.33351,52.583576)"
       d="m 26.834089,278.07191 c 23.918484,-17.69889 58.700766,-12.50078 76.399651,11.41771 0.19749,0.26688 0.39254,0.53556 0.58512,0.806"
       sodipodi:t0="0.91206604"
       sodipodi:argument="-18.689543"
       sodipodi:radius="54.622665"
       sodipodi:revolution="2.8760457"
       sodipodi:expansion="0"
       sodipodi:cy="321.98059"
       sodipodi:cx="59.325062"
       id="path3809"
       style="fill:none;stroke:#9ade00;stroke-width:8;stroke-linecap:butt;stroke-linejoin:miter;stroke-opacity:1"
       sodipodi:type="spiral" />
  </g>
  <path
     style="fill:none;stroke:#2d2d2d;stroke-width:2;stroke-linecap:butt;stroke-linejoin:miter;stroke-opacity:1"
     d="M 79.514897,198.96383 310.48149,114.10061"
     id="path3005"
     inkscape:path-effect="#path-effect3007"
     inkscape:original-d="M 79.514897,198.96383 310.48149,114.10061"
     inkscape:connector-curvature="0"
     sodipodi:nodetypes="cc" />
  <path
     sodipodi:nodetypes="cc"
     inkscape:connector-curvature="0"
     inkscape:original-d="M 316.71707,141.07498 73.131554,172.03112"
     inkscape:path-effect="#path-effect3011"
     id="path3009"
     d="M 316.71707,141.07498 73.131554,172.03112"
     style="fill:none;stroke:#2d2d2d;stroke-width:2;stroke-linecap:butt;stroke-linejoin:miter;stroke-opacity:1" />
  <path
     sodipodi:nodetypes="cc"
     inkscape:connector-curvature="0"
     inkscape:original-d="M 51.414791,57.738831 163.00089,45.914338"
     inkscape:path-effect="#path-effect3015"
     id="path3013"
     d="M 51.414791,57.738831 163.00089,45.914338"
     style="fill:none;stroke:#2d2d2d;stroke-width:2;stroke-linecap:butt;stroke-linejoin:miter;stroke-opacity:1" />
  <path
     style="color:#000000;fill:#DB7B03;fill-opacity:1;fill-rule:nonzero;stroke:#2d2d2d;stroke-width:2;stroke-linecap:butt;stroke-linejoin:miter;stroke-miterlimit:4;stroke-opacity:1;stroke-dasharray:none;stroke-dashoffset:0;marker:none;visibility:visible;display:inline;overflow:visible;enable-background:accumulate"
     d="m 52.096151,57.679024 c -1.849309,0.0379 -3.613058,1.223365 -4.373152,2.906734 -0.356039,0.742909 -0.507776,1.572413 -0.462185,2.394498 0.04699,1.12968 0.519587,2.229163 1.265072,3.074347 0.818218,0.929091 1.992246,1.52963 3.221267,1.658408 0.39335,0.03466 0.792854,0.0154 1.185534,-0.01395 1.743276,-0.205904 3.321677,-1.411894 3.990599,-3.033398 0.687095,-1.598075 0.466576,-3.55287 -0.582377,-4.944923 -0.870791,-1.194439 -2.295574,-1.96564 -3.771993,-2.038994 -0.157512,-0.0056 -0.315201,-0.0066 -0.472765,-0.0027 z"
     id="path3017"
     inkscape:connector-curvature="0" />
  <path
     style="fill:none;stroke:#2d2d2d;stroke-width:2;stroke-linecap:butt;stroke-linejoin:miter;stroke-opacity:1"
     d="M 52.154674,67.727239 165.21797,73.407093"
     id="path3019"
     inkscape:path-effect="#path-effect3021"
     inkscape:original-d="M 52.154674,67.727239 165.21797,73.407093"
     inkscape:connector-curvature="0"
     sodipodi:nodetypes="cc" />
  <path
     style="fill:none;stroke:none;stroke-width:8;stroke-linecap:butt;stroke-linejoin:miter;stroke-opacity:1"
     d="m 26.834089,278.07191 c 23.918484,-17.69889 58.700766,-12.50078 76.399651,11.41771 0.19749,0.26688 0.39254,0.53556 0.58512,0.806"
     id="arrowpath"
     transform="matrix(0.67303903,0.70228433,0.68957735,-0.48244751,-197.98126,318.24829)"
     inkscape:label="#path3018" />
</svg>
